<svg xmlns="http://www.w3.org/2000/svg" version="1.1" xmlns:xlink="http://www.w3.org/1999/xlink" xmlns:svgjs="http://svgjs.dev/svgjs" width="2000" height="1247" viewBox="0 0 2000 1247"><g transform="matrix(1,0,0,1,-1.2121212121212466,0.504858299595071)"><svg viewBox="0 0 396 247" data-background-color="#ffffff" preserveAspectRatio="xMidYMid meet" height="1247" width="2000" xmlns="http://www.w3.org/2000/svg" xmlns:xlink="http://www.w3.org/1999/xlink"><g id="tight-bounds" transform="matrix(1,0,0,1,0.2400000000000091,-0.09999999999999432)"><svg viewBox="0 0 395.52 247.2" height="247.2" width="395.52"><g><svg></svg></g><g><svg viewBox="0 0 395.52 247.2" height="247.2" width="395.52"><g transform="matrix(1,0,0,1,75.54432,93.70812136531487)"><svg viewBox="0 0 244.43135999999998 59.78375726937025" height="59.78375726937025" width="244.43135999999998"><g><svg viewBox="0 0 244.43135999999998 59.78375726937025" height="59.78375726937025" width="244.43135999999998"><g><svg viewBox="0 0 334.36216474336373 81.77930400206604" height="59.78375726937025" width="244.43135999999998"><g transform="matrix(1,0,0,1,89.93080474336377,11.302349540082936)"><svg viewBox="0 0 244.43135999999998 59.17460492190017" height="59.17460492190017" width="244.43135999999998"><g id="textblocktransform"><svg viewBox="0 0 244.43135999999998 59.17460492190017" height="59.17460492190017" width="244.43135999999998" id="textblock"><g><svg viewBox="0 0 244.43135999999998 26.463592884097036" height="26.463592884097036" width="244.43135999999998"><g transform="matrix(1,0,0,1,0,0)"><svg width="244.43135999999998" viewBox="2.799999952316284 -35.79999923706055 333.8800048828125 36.14999771118164" height="26.463592884097036" data-palette-color="#ffffff"><path d="M16.75-35.25Q22.3-35.25 26.48-33.02 30.65-30.8 32.9-26.8 35.15-22.8 35.15-17.65L35.15-17.65Q35.15-12.55 32.88-8.55 30.6-4.55 26.43-2.27 22.25 0 16.75 0L16.75 0 2.8 0 2.8-35.25 16.75-35.25ZM16-8.65Q20.3-8.65 22.75-11 25.2-13.35 25.2-17.65L25.2-17.65Q25.2-22 22.75-24.38 20.3-26.75 16-26.75L16-26.75 12.6-26.75 12.6-8.65 16-8.65ZM62.1-27.4L49.35-27.4 49.35-21.65 60.6-21.65 60.6-14.2 49.35-14.2 49.35-7.85 62.1-7.85 62.1 0 39.55 0 39.55-35.25 62.1-35.25 62.1-27.4ZM76.75-35.25L76.75-7.5 87.7-7.5 87.7 0 66.95 0 66.95-35.25 76.75-35.25ZM104.79 0.35Q98.64 0.35 94.69-2.58 90.74-5.5 90.44-10.95L90.44-10.95 100.89-10.95Q101.04-9.1 101.99-8.25 102.94-7.4 104.44-7.4L104.44-7.4Q105.79-7.4 106.67-8.08 107.54-8.75 107.54-9.95L107.54-9.95Q107.54-11.5 106.09-12.35 104.64-13.2 101.39-14.25L101.39-14.25Q97.94-15.4 95.82-16.48 93.69-17.55 92.12-19.63 90.54-21.7 90.54-25.05L90.54-25.05Q90.54-28.45 92.24-30.88 93.94-33.3 96.94-34.55 99.94-35.8 103.74-35.8L103.74-35.8Q109.89-35.8 113.57-32.93 117.24-30.05 117.49-24.85L117.49-24.85 106.84-24.85Q106.79-26.45 105.87-27.25 104.94-28.05 103.49-28.05L103.49-28.05Q102.39-28.05 101.69-27.4 100.99-26.75 100.99-25.55L100.99-25.55Q100.99-24.55 101.77-23.83 102.54-23.1 103.69-22.58 104.84-22.05 107.09-21.25L107.09-21.25Q110.44-20.1 112.62-18.98 114.79-17.85 116.37-15.83 117.94-13.8 117.94-10.7L117.94-10.7Q117.94-7.55 116.37-5.05 114.79-2.55 111.82-1.1 108.84 0.35 104.79 0.35L104.79 0.35ZM139.39 0.35Q134.44 0.35 130.29-1.98 126.14-4.3 123.72-8.43 121.29-12.55 121.29-17.75L121.29-17.75Q121.29-22.95 123.72-27.08 126.14-31.2 130.29-33.5 134.44-35.8 139.39-35.8L139.39-35.8Q144.39-35.8 148.52-33.5 152.64-31.2 155.04-27.08 157.44-22.95 157.44-17.75L157.44-17.75Q157.44-12.55 155.04-8.43 152.64-4.3 148.49-1.98 144.34 0.35 139.39 0.35L139.39 0.35ZM139.39-8.75Q143.14-8.75 145.31-11.2 147.49-13.65 147.49-17.75L147.49-17.75Q147.49-21.95 145.31-24.38 143.14-26.8 139.39-26.8L139.39-26.8Q135.59-26.8 133.44-24.38 131.29-21.95 131.29-17.75L131.29-17.75Q131.29-13.6 133.44-11.18 135.59-8.75 139.39-8.75L139.39-8.75ZM194.49-35.25L194.49 0 184.69 0 171.64-19.7 171.64 0 161.84 0 161.84-35.25 171.64-35.25 184.69-15.3 184.69-35.25 194.49-35.25ZM207.68-35.25L236.18-35.25 236.18-27.45 226.78-27.45 226.78 0 216.98 0 216.98-27.45 207.68-27.45 207.68-35.25ZM262.38-27.4L249.63-27.4 249.63-21.65 260.88-21.65 260.88-14.2 249.63-14.2 249.63-7.85 262.38-7.85 262.38 0 239.83 0 239.83-35.25 262.38-35.25 262.38-27.4ZM266.03-17.7Q266.03-22.9 268.2-26.98 270.38-31.05 274.38-33.33 278.38-35.6 283.58-35.6L283.58-35.6Q290.18-35.6 294.68-32.08 299.18-28.55 300.48-22.5L300.48-22.5 289.93-22.5Q288.98-24.5 287.3-25.55 285.63-26.6 283.43-26.6L283.43-26.6Q280.03-26.6 278-24.18 275.98-21.75 275.98-17.7L275.98-17.7Q275.98-13.6 278-11.18 280.03-8.75 283.43-8.75L283.43-8.75Q285.63-8.75 287.3-9.8 288.98-10.85 289.93-12.85L289.93-12.85 300.48-12.85Q299.18-6.8 294.68-3.28 290.18 0.25 283.58 0.25L283.58 0.25Q278.38 0.25 274.38-2.02 270.38-4.3 268.2-8.38 266.03-12.45 266.03-17.7L266.03-17.7ZM326.88-35.25L336.68-35.25 336.68 0 326.88 0 326.88-14.15 314.93-14.15 314.93 0 305.13 0 305.13-35.25 314.93-35.25 314.93-22 326.88-22 326.88-35.25Z" opacity="1" transform="matrix(1,0,0,1,0,0)" fill="#ffffff" class="wordmark-text-0" data-fill-palette-color="primary" id="text-0"></path></svg></g></svg></g><g transform="matrix(1,0,0,1,0,32.71101203780313)"><svg viewBox="0 0 244.43135999999998 26.463592884097036" height="26.463592884097036" width="244.43135999999998"><g transform="matrix(1,0,0,1,0,0)"><svg width="244.43135999999998" viewBox="2.8600001335144043 -37.5 444.9100036621094 48.16999816894531" height="26.463592884097036" data-palette-color="#99592a"><path d="M14.62 0L2.86 0 2.86-35.55 13.84-35.55Q19.41-35.55 22.3-33.07 25.2-30.59 25.2-25.81L25.2-25.81Q25.2-23.1 24-21.14 22.8-19.19 20.73-18.29L20.73-18.29Q23.12-17.6 24.41-15.54 25.71-13.48 25.71-10.45L25.71-10.45Q25.71-5.27 22.86-2.64 20.02 0 14.62 0L14.62 0ZM15.09-15.45L10.03-15.45 10.03-5.96 14.62-5.96Q16.55-5.96 17.55-7.15 18.55-8.35 18.55-10.55L18.55-10.55Q18.55-15.33 15.09-15.45L15.09-15.45ZM10.03-29.57L10.03-20.68 13.77-20.68Q17.99-20.68 17.99-25.05L17.99-25.05Q17.99-27.47 17.02-28.52 16.04-29.57 13.84-29.57L13.84-29.57 10.03-29.57ZM45.23 0.49L45.23 0.49Q39.91 0.49 36.93-2.69 33.95-5.86 33.95-11.77L33.95-11.77 33.95-13.87Q33.95-20.12 36.68-23.51 39.42-26.9 44.52-26.9L44.52-26.9Q49.5-26.9 52.02-23.72 54.53-20.53 54.58-14.28L54.58-14.28 54.58-10.89 40.83-10.89Q40.98-7.96 42.13-6.6 43.27-5.25 45.67-5.25L45.67-5.25Q49.13-5.25 51.45-7.62L51.45-7.62 54.16-3.44Q52.89-1.68 50.48-0.6 48.06 0.49 45.23 0.49ZM40.88-15.72L40.88-15.72 47.79-15.72 47.79-16.36Q47.74-18.73 47.01-19.95 46.28-21.17 44.47-21.17 42.66-21.17 41.85-19.87 41.03-18.58 40.88-15.72ZM67.46-26.42L70.63-11.5 74.15-26.42 81.52-26.42 72.83 3.96Q70.88 10.67 65.48 10.67L65.48 10.67Q64.24 10.67 62.65 10.21L62.65 10.21 62.65 4.81 63.45 4.83Q65.07 4.83 65.88 4.21 66.7 3.59 67.12 2.05L67.12 2.05 67.65 0.27 60.04-26.42 67.46-26.42ZM87.3-12.38L87.3-14.06Q87.3-20.07 90.13-23.49 92.96-26.9 97.96-26.9L97.96-26.9Q103.02-26.9 105.85-23.49 108.68-20.07 108.68-14.01L108.68-14.01 108.68-12.33Q108.68-6.3 105.87-2.91 103.07 0.49 98.01 0.49L98.01 0.49Q92.94 0.49 90.12-2.92 87.3-6.32 87.3-12.38L87.3-12.38ZM94.23-14.06L94.23-12.33Q94.23-5.25 98.01-5.25L98.01-5.25Q101.5-5.25 101.77-11.16L101.77-11.16 101.8-14.06Q101.8-17.68 100.8-19.42 99.8-21.17 97.96-21.17L97.96-21.17Q96.21-21.17 95.22-19.42 94.23-17.68 94.23-14.06L94.23-14.06ZM116.8-26.42L123.29-26.42 123.49-23.8Q125.83-26.9 129.62-26.9L129.62-26.9Q136.43-26.9 136.63-17.36L136.63-17.36 136.63 0 129.69 0 129.69-16.85Q129.69-19.09 129.02-20.1 128.35-21.12 126.66-21.12L126.66-21.12Q124.78-21.12 123.73-19.19L123.73-19.19 123.73 0 116.8 0 116.8-26.42ZM144.65-12.01L144.65-14.01Q144.65-20.51 146.84-23.71 149.04-26.9 153.24-26.9L153.24-26.9Q156.29-26.9 158.32-24.27L158.32-24.27 158.32-37.5 165.28-37.5 165.28 0 159 0 158.68-2.69Q156.56 0.49 153.22 0.49L153.22 0.49Q149.06 0.49 146.88-2.69 144.69-5.86 144.65-12.01L144.65-12.01ZM151.58-14.11L151.58-12.28Q151.58-8.37 152.41-6.82 153.24-5.27 155.22-5.27L155.22-5.27Q157.27-5.27 158.32-7.1L158.32-7.1 158.32-19.17Q157.29-21.12 155.24-21.12L155.24-21.12Q153.34-21.12 152.46-19.58 151.58-18.04 151.58-14.11L151.58-14.11ZM201.97 0L190.2 0 190.2-35.55 201.19-35.55Q206.76-35.55 209.65-33.07 212.54-30.59 212.54-25.81L212.54-25.81Q212.54-23.1 211.35-21.14 210.15-19.19 208.08-18.29L208.08-18.29Q210.47-17.6 211.76-15.54 213.06-13.48 213.06-10.45L213.06-10.45Q213.06-5.27 210.21-2.64 207.37 0 201.97 0L201.97 0ZM202.44-15.45L197.38-15.45 197.38-5.96 201.97-5.96Q203.9-5.96 204.9-7.15 205.9-8.35 205.9-10.55L205.9-10.55Q205.9-15.33 202.44-15.45L202.44-15.45ZM197.38-29.57L197.38-20.68 201.12-20.68Q205.34-20.68 205.34-25.05L205.34-25.05Q205.34-27.47 204.36-28.52 203.39-29.57 201.19-29.57L201.19-29.57 197.38-29.57ZM221.1-12.38L221.1-14.06Q221.1-20.07 223.93-23.49 226.77-26.9 231.77-26.9L231.77-26.9Q236.82-26.9 239.66-23.49 242.49-20.07 242.49-14.01L242.49-14.01 242.49-12.33Q242.49-6.3 239.68-2.91 236.87 0.49 231.82 0.49L231.82 0.49Q226.74 0.49 223.92-2.92 221.1-6.32 221.1-12.38L221.1-12.38ZM228.04-14.06L228.04-12.33Q228.04-5.25 231.82-5.25L231.82-5.25Q235.31-5.25 235.58-11.16L235.58-11.16 235.6-14.06Q235.6-17.68 234.6-19.42 233.6-21.17 231.77-21.17L231.77-21.17Q230.01-21.17 229.02-19.42 228.04-17.68 228.04-14.06L228.04-14.06ZM263.96 0L263.77-2.42Q261.62 0.49 258 0.49L258 0.49Q254.37 0.49 252.49-2.01 250.61-4.52 250.61-9.3L250.61-9.3 250.61-26.42 257.52-26.42 257.52-9.13Q257.56-5.27 260.08-5.27L260.08-5.27Q262.45-5.27 263.5-7.32L263.5-7.32 263.5-26.42 270.46-26.42 270.46 0 263.96 0ZM279.21-26.42L285.7-26.42 285.9-23.8Q288.24-26.9 292.03-26.9L292.03-26.9Q298.84-26.9 299.03-17.36L299.03-17.36 299.03 0 292.1 0 292.1-16.85Q292.1-19.09 291.43-20.1 290.76-21.12 289.07-21.12L289.07-21.12Q287.19-21.12 286.14-19.19L286.14-19.19 286.14 0 279.21 0 279.21-26.42ZM307.05-12.01L307.05-14.01Q307.05-20.51 309.25-23.71 311.45-26.9 315.65-26.9L315.65-26.9Q318.7-26.9 320.73-24.27L320.73-24.27 320.73-37.5 327.68-37.5 327.68 0 321.41 0 321.09-2.69Q318.97 0.49 315.62 0.49L315.62 0.49Q311.47 0.49 309.29-2.69 307.1-5.86 307.05-12.01L307.05-12.01ZM313.99-14.11L313.99-12.28Q313.99-8.37 314.82-6.82 315.65-5.27 317.63-5.27L317.63-5.27Q319.68-5.27 320.73-7.1L320.73-7.1 320.73-19.17Q319.7-21.12 317.65-21.12L317.65-21.12Q315.75-21.12 314.87-19.58 313.99-18.04 313.99-14.11L313.99-14.11ZM356.26 0L349.3 0Q349.01-0.61 348.72-2.05L348.72-2.05Q346.86 0.49 343.69 0.49L343.69 0.49Q340.37 0.49 338.18-1.71 336-3.91 336-7.4L336-7.4Q336-11.55 338.65-13.82 341.3-16.09 346.28-16.14L346.28-16.14 348.38-16.14 348.38-18.26Q348.38-20.04 347.77-20.78 347.16-21.51 345.98-21.51L345.98-21.51Q343.4-21.51 343.4-18.48L343.4-18.48 336.49-18.48Q336.49-22.14 339.23-24.52 341.98-26.9 346.18-26.9L346.18-26.9Q350.52-26.9 352.9-24.65 355.29-22.39 355.29-18.19L355.29-18.19 355.29-5.76Q355.33-2.34 356.26-0.42L356.26-0.42 356.26 0ZM345.23-4.93L345.23-4.93Q346.37-4.93 347.18-5.4 347.99-5.86 348.38-6.49L348.38-6.49 348.38-11.99 346.72-11.99Q344.96-11.99 343.94-10.86 342.93-9.74 342.93-7.86L342.93-7.86Q342.93-4.93 345.23-4.93ZM377.39-26.59L377.32-19.75 375.02-19.95Q372.19-19.95 371.19-17.46L371.19-17.46 371.19 0 364.26 0 364.26-26.42 370.78-26.42 370.97-23.56Q372.61-26.9 375.49-26.9L375.49-26.9Q376.66-26.9 377.39-26.59L377.39-26.59ZM392.1-26.42L392.1 0 385.17 0 385.17-26.42 392.1-26.42ZM384.85-33.25L384.85-33.25Q384.85-34.86 385.88-35.89 386.9-36.91 388.61-36.91 390.32-36.91 391.35-35.89 392.37-34.86 392.37-33.25L392.37-33.25Q392.37-31.67 391.36-30.62 390.35-29.57 388.61-29.57 386.88-29.57 385.87-30.62 384.85-31.67 384.85-33.25ZM412.11 0.49L412.11 0.49Q406.79 0.49 403.81-2.69 400.83-5.86 400.83-11.77L400.83-11.77 400.83-13.87Q400.83-20.12 403.57-23.51 406.3-26.9 411.4-26.9L411.4-26.9Q416.38-26.9 418.9-23.72 421.41-20.53 421.46-14.28L421.46-14.28 421.46-10.89 407.72-10.89Q407.86-7.96 409.01-6.6 410.16-5.25 412.55-5.25L412.55-5.25Q416.02-5.25 418.34-7.62L418.34-7.62 421.05-3.44Q419.78-1.68 417.36-0.6 414.94 0.49 412.11 0.49ZM407.77-15.72L407.77-15.72 414.68-15.72 414.68-16.36Q414.63-18.73 413.89-19.95 413.16-21.17 411.36-21.17 409.55-21.17 408.73-19.87 407.91-18.58 407.77-15.72ZM441.06-7.08L441.06-7.08Q441.06-7.96 440.21-8.7 439.37-9.45 436.47-10.72L436.47-10.72Q432.19-12.45 430.59-14.31 429-16.16 429-18.92L429-18.92Q429-22.39 431.5-24.65 434-26.9 438.13-26.9L438.13-26.9Q442.47-26.9 445.08-24.66 447.7-22.41 447.7-18.63L447.7-18.63 440.79-18.63Q440.79-21.85 438.1-21.85L438.1-21.85Q437-21.85 436.29-21.17 435.59-20.48 435.59-19.26L435.59-19.26Q435.59-18.38 436.37-17.71 437.15-17.04 440.05-15.8L440.05-15.8Q444.28-14.23 446.02-12.32 447.77-10.4 447.77-7.35L447.77-7.35Q447.77-3.81 445.11-1.66 442.45 0.49 438.13 0.49L438.13 0.49Q435.22 0.49 433-0.65 430.78-1.78 429.52-3.81 428.26-5.83 428.26-8.18L428.26-8.18 434.83-8.18Q434.88-6.37 435.67-5.47 436.47-4.57 438.27-4.57L438.27-4.57Q441.06-4.57 441.06-7.08Z" opacity="1" transform="matrix(1,0,0,1,0,0)" fill="#99592a" class="slogan-text-1" data-fill-palette-color="secondary" id="text-1"></path></svg></g></svg></g></svg></g></svg></g><g><svg viewBox="0 0 83.68338558965768 81.77930400206604" height="81.77930400206604" width="83.68338558965768"><g><svg xmlns="http://www.w3.org/2000/svg" xmlns:xlink="http://www.w3.org/1999/xlink" version="1.1" x="0" y="0" viewBox="4.000085353851318 5.013332843780518 91.05855560302734 88.98666381835938" enable-background="new 0 0 100 100" xml:space="preserve" height="81.77930400206604" width="83.68338558965768" class="icon-icon-0" data-fill-palette-color="accent" id="icon-0"><g fill="#99592a" data-fill-palette-color="accent"><circle cx="55.538" cy="19.677" r="4.9" fill="#99592a" data-fill-palette-color="accent"></circle></g><g fill="#99592a" data-fill-palette-color="accent"><circle cx="23.472" cy="42.596" r="4.9" fill="#99592a" data-fill-palette-color="accent"></circle></g><g fill="#99592a" data-fill-palette-color="accent"><circle cx="45.736" cy="65.145" r="4.9" fill="#99592a" data-fill-palette-color="accent"></circle></g><g fill="#99592a" data-fill-palette-color="accent"><circle cx="12.968" cy="82.662" r="4.9" fill="#99592a" data-fill-palette-color="accent"></circle></g><g fill="#99592a" data-fill-palette-color="accent"><circle cx="81.493" cy="25.552" r="4.9" fill="#99592a" data-fill-palette-color="accent"></circle></g><g fill="#99592a" data-fill-palette-color="accent"><circle cx="47.69" cy="89.1" r="4.9" fill="#99592a" data-fill-palette-color="accent"></circle></g><g fill="#99592a" data-fill-palette-color="accent"><path d="M12.968 83.811c-0.145 0-0.287-0.027-0.419-0.078-0.101-0.041-0.197-0.094-0.285-0.162-0.15-0.117-0.273-0.273-0.353-0.457-0.02-0.047-0.037-0.096-0.05-0.143L4.046 56.078c-0.136-0.471 0.039-0.975 0.438-1.258l51.203-36.386c0.455-0.323 1.075-0.273 1.473 0.117s0.457 1.01 0.143 1.47L16.579 79.428l28.615-15.297c0.166-0.088 0.353-0.135 0.542-0.135h46.606L80.492 26.358 58.655 7.024c-0.475-0.421-0.52-1.147-0.098-1.623 0.42-0.475 1.147-0.52 1.622-0.099l22.075 19.545c0.156 0.139 0.272 0.317 0.335 0.516l12.417 39.437c0.109 0.348 0.047 0.729-0.17 1.023-0.217 0.297-0.561 0.471-0.927 0.471H46.024L13.532 83.664c-0.051 0.027-0.104 0.053-0.159 0.074-0.069 0.025-0.141 0.045-0.212 0.057C13.097 83.807 13.032 83.811 12.968 83.811zM6.482 56.221l6.912 23.785 38.356-55.953L6.482 56.221z" fill="#99592a" data-fill-palette-color="accent"></path></g><g fill="#99592a" data-fill-palette-color="accent"><path d="M45.737 66.295c-0.077 0-0.155-0.008-0.233-0.023l0 0c-0.001 0-0.002 0-0.002 0-0.017-0.004-0.032-0.008-0.047-0.012l0 0c-0.003 0-0.004 0-0.006-0.002l0 0c-0.213-0.055-0.396-0.164-0.539-0.312L10.716 31.75 6.281 55.965c-0.114 0.625-0.714 1.037-1.338 0.924-0.625-0.115-1.038-0.715-0.924-1.338l4.829-26.37c0.076-0.42 0.381-0.763 0.788-0.891 0.408-0.127 0.854-0.018 1.155 0.285l34.292 34.292 9.896-42.656-28.495-7.184c-0.526-0.132-0.888-0.614-0.868-1.156s0.416-0.997 0.949-1.091l32.653-5.749c0.38-0.067 0.769 0.062 1.033 0.341 0.266 0.28 0.373 0.675 0.286 1.051l-2.81 12.109 24.046 6.062c0.391 0.099 0.702 0.396 0.819 0.782 0.116 0.386 0.022 0.806-0.249 1.105L46.603 65.9c-0.065 0.076-0.141 0.143-0.224 0.197 0 0.002-0.001 0.002-0.001 0.002-0.001 0-0.001 0-0.002 0l-0.001 0.002c-0.001 0-0.001 0-0.001 0-0.017 0.012-0.032 0.021-0.049 0.031-0.001 0-0.001 0-0.001 0-0.001 0-0.001 0-0.002 0.002h-0.001c-0.001 0-0.001 0-0.001 0C46.146 66.238 45.945 66.295 45.737 66.295zM57.209 20.773l-9.354 40.323 31.499-34.74L57.209 20.773zM32.262 12.112l23.237 5.858 2.406-10.373L32.262 12.112z" fill="#99592a" data-fill-palette-color="accent"></path></g><g fill="#99592a" data-fill-palette-color="accent"><path d="M47.69 90.25c-0.069 0-0.14-0.006-0.21-0.02l-34.722-6.439c-0.624-0.115-1.036-0.715-0.921-1.34 0.116-0.623 0.717-1.037 1.34-0.92l33.245 6.164-1.82-22.307-18.92-53.09c-0.214-0.598 0.099-1.256 0.697-1.469 0.598-0.213 1.255 0.099 1.469 0.697L46.819 64.76c0.033 0.094 0.055 0.191 0.062 0.293l1.955 23.953c0.028 0.357-0.11 0.707-0.376 0.947C48.248 90.145 47.973 90.25 47.69 90.25z" fill="#99592a" data-fill-palette-color="accent"></path></g><g fill="#99592a" data-fill-palette-color="accent"><path d="M47.689 90.25c-0.183 0-0.367-0.043-0.54-0.135-0.561-0.301-0.772-0.996-0.474-1.557l33.803-63.391c0.299-0.56 0.995-0.772 1.556-0.474 0.56 0.299 0.771 0.996 0.474 1.556L48.705 89.641C48.498 90.029 48.101 90.25 47.689 90.25z" fill="#99592a" data-fill-palette-color="accent"></path></g></svg></g></svg></g></svg></g></svg></g></svg></g><g><path d="M0 123.6c0-68.262 55.338-123.6 123.6-123.6 57.132 0 105.211 38.763 119.37 91.425l-0.903 0c-14.136-52.174-61.82-90.552-118.467-90.553-67.781 0-122.728 54.947-122.728 122.728 0 67.781 54.947 122.728 122.728 122.728 56.647 0 104.33-38.378 118.467-90.553h0.903c-14.159 52.661-62.238 91.425-119.37 91.425-68.262 0-123.6-55.338-123.6-123.6z" fill="#ffffff" stroke="transparent" data-fill-palette-color="tertiary"></path></g></svg></g><defs></defs></svg><rect width="395.52" height="247.2" fill="none" stroke="none" visibility="hidden"></rect></g></svg></g></svg>