<svg width="28" height="28" viewBox="0 0 28 28" fill="none" xmlns="http://www.w3.org/2000/svg">
<g clip-path="url(#clip0_492_8084)">
<path d="M27.2225 13.9527C27.8161 14.5614 28.0933 15.4141 27.9732 16.2591C27.8534 17.1036 27.3488 17.8431 26.6093 18.2586C25.573 18.8411 25.0329 20.0342 25.2748 21.2052C25.447 22.0404 25.2233 22.9087 24.6689 23.5541C24.1147 24.199 23.294 24.5462 22.4495 24.4927C21.2657 24.418 20.1709 25.1272 19.7466 26.2444C19.444 27.0413 18.7896 27.6495 17.9778 27.89C17.1655 28.1306 16.2894 27.9749 15.607 27.4694C14.6516 26.7613 13.3501 26.7613 12.3942 27.4694C11.7124 27.9749 10.8354 28.1306 10.0236 27.89C9.21162 27.6495 8.55757 27.0413 8.2546 26.2444C7.83067 25.1272 6.73608 24.4177 5.55193 24.4927C4.70715 24.5462 3.88621 24.199 3.33208 23.5541C2.77795 22.9087 2.55391 22.0401 2.72639 21.2052C2.96832 20.0345 2.42764 18.8411 1.39162 18.2586C0.652399 17.8428 0.148133 17.1036 0.0277302 16.2591C-0.0929536 15.4144 0.184507 14.5617 0.777562 13.953C1.6089 13.0998 1.79455 11.8011 1.2351 10.7464C0.835809 9.99398 0.807802 9.09685 1.15949 8.32096C1.5109 7.5445 2.20166 6.97831 3.02712 6.78959C4.18382 6.52498 5.03619 5.5335 5.13111 4.34123C5.19887 3.49057 5.65665 2.72054 6.36871 2.25937C7.08021 1.7982 7.96508 1.69823 8.76058 1.98943C9.87529 2.39768 11.1241 2.0278 11.8432 1.0769C12.3564 0.39844 13.1541 0 14.0003 0C14.8462 0 15.6442 0.398455 16.1575 1.07663C16.8765 2.02781 18.1248 2.39768 19.2404 1.98943C20.0356 1.69823 20.9198 1.7982 21.6319 2.25937C22.3437 2.72054 22.8018 3.49085 22.8692 4.34123C22.9642 5.5335 23.8162 6.52526 24.9735 6.78959C25.7987 6.97831 26.4895 7.54448 26.8409 8.32066C27.192 9.09656 27.1646 9.994 26.7653 10.7461C26.2061 11.8009 26.3914 13.0998 27.2225 13.9527Z" fill="white"/>
<path d="M11.8682 18.2253L12.5894 18.8997L13.2953 18.2083L20.9998 10.6616L19.555 9.09985L12.5894 15.9433L8.40926 12.0771L7 13.6729L11.8682 18.2253Z" fill="black"/>
</g>
<defs>
<clipPath id="clip0_492_8084">
<rect width="28" height="28" fill="white"/>
</clipPath>
</defs>
</svg>
